<svg xmlns="http://www.w3.org/2000/svg" viewBox="0 0 132.19 179.24"><defs><style>.cls-1{fill:#cd2027;}.cls-2{fill:#cc2329;}.cls-3{fill:#2f338a;}.cls-4{fill:#211f5d;}</style></defs><g id="Layer_2" data-name="Layer 2"><g id="Layer_1-2" data-name="Layer 1"><path class="cls-1" d="M10.49,152.45a11.78,11.78,0,0,1,1.06,1,6.91,6.91,0,0,1,1.92-1.51,7.21,7.21,0,0,1,2.64-.51,9.79,9.79,0,0,1,2.28.17,7.2,7.2,0,0,1,2.73,1.6,6.92,6.92,0,0,1,1.79,3.3c.12,1,.17,1.68.17,2v11.61a.71.71,0,0,1-.57.68H19.78c-.4,0-.62-.26-.66-.77V158.24A3.31,3.31,0,0,0,18,155.5a3,3,0,0,0-1.65-.45,2.54,2.54,0,0,0-2.73,2.22,8.08,8.08,0,0,0-.06,1.11V170q-.07.72-.66.72H10.17q-.6-.15-.6-.6V158.26a3.14,3.14,0,0,0-.82-2.57,3.17,3.17,0,0,0-2-.64,2.59,2.59,0,0,0-2.56,1.64A3.72,3.72,0,0,0,4,158.18V170a.75.75,0,0,1-.55.77H.66c-.4,0-.61-.26-.66-.77V158.15a6.63,6.63,0,0,1,3.11-5.87,7.41,7.41,0,0,1,3.56-.91A6.61,6.61,0,0,1,10.49,152.45Z"/><path class="cls-1" d="M29.48,161.06l-4.23-8.71c-.25-.71-.17-1.06.25-1.06h2.7c.41,0,.72.26.94.8L31.46,157l2.3-4.86c.22-.54.53-.8.94-.8h2.7c.42,0,.5.35.24,1.06l-4.23,8.72V170c0,.54-.21.8-.63.79h-2.7q-.61,0-.6-1Z"/><path class="cls-1" d="M50.79,162.32v2.43a2.44,2.44,0,0,0,.39,1.36,1.47,1.47,0,0,0,1,.58c.44.06,1.47.12,3.1.16.3.06.45.32.45.8V170c0,.51-.28.77-.85.77a13.86,13.86,0,0,1-4.78-.51,5.1,5.1,0,0,1-1.92-1.57,5.7,5.7,0,0,1-1.06-2,6.54,6.54,0,0,1-.26-1.51v-8.49a6.61,6.61,0,0,1,.26-1.52,5.63,5.63,0,0,1,1.06-1.94,5.07,5.07,0,0,1,1.92-1.56,13.86,13.86,0,0,1,4.78-.51c.57,0,.85.25.85.76v2.33c0,.47-.15.74-.45.79-1.63.05-2.66.1-3.1.17a1.45,1.45,0,0,0-1,.56,2.45,2.45,0,0,0-.39,1.37v1.23h3.86c.71,0,1.06.19,1.05.61v2.7c0,.41-.25.62-.79.62Z"/><path class="cls-1" d="M64.34,151.28a10.74,10.74,0,0,1,1.94.26,7.21,7.21,0,0,1,1.86.8,6.87,6.87,0,0,1,1.65,1.51,7.81,7.81,0,0,1,.88,1.6,8.39,8.39,0,0,1,.49,3.1v11.52a.71.71,0,0,1-.57.68H67.85c-.39,0-.61-.24-.65-.72V158.24c0-1.74-.72-2.79-2.14-3.13a2.63,2.63,0,0,0-.69-.06,2.59,2.59,0,0,0-2.56,1.68c-.07.29-.14.64-.2,1.05v12c0,.65-.23,1-.68,1H58.25a.67.67,0,0,1-.57-.43.85.85,0,0,1,0-.23V158a6.48,6.48,0,0,1,2.71-5.41,6.76,6.76,0,0,1,3.79-1.22v0Z"/><path class="cls-1" d="M86.21,166.63a7.08,7.08,0,0,1-.88,1.59,6.3,6.3,0,0,1-3.51,2.3,9.81,9.81,0,0,1-1.94.26l-.19-.06v0a6.76,6.76,0,0,1-3.79-1.22,6.49,6.49,0,0,1-2.71-5.41V158a6.51,6.51,0,0,1,2.71-5.41,6.76,6.76,0,0,1,3.79-1.22v0l.19-.06a10.61,10.61,0,0,1,1.94.26,6.93,6.93,0,0,1,1.86.8,6.69,6.69,0,0,1,1.65,1.51,7.36,7.36,0,0,1,.88,1.6A6.53,6.53,0,0,1,86.7,158v.39a.69.69,0,0,1-.57.68H83.39c-.39,0-.6-.23-.65-.71v-.11c0-1.74-.71-2.79-2.14-3.13a2.54,2.54,0,0,0-.68-.06,2.57,2.57,0,0,0-2.56,1.68,8.81,8.81,0,0,0-.21,1.05v6.51a8.62,8.62,0,0,0,.21,1.06A2.57,2.57,0,0,0,79.92,167a2.54,2.54,0,0,0,.68-.06q2.25,0,2.09-3.81H80.5c-.54,0-.8-.18-.8-.53v-2.31c0-.35.35-.53,1.06-.52h4.83c.71,0,1.06.17,1,.52C86.65,163.8,86.51,165.9,86.21,166.63Z"/><path class="cls-1" d="M88.88,151.29h2.7c.42,0,.63.26.63.8v12.66a2.44,2.44,0,0,0,.38,1.36,1.49,1.49,0,0,0,1,.58c.44.06,1.06.12,1.85.16.3.06.45.32.45.8V170c0,.51-.28.77-.85.77a9,9,0,0,1-3.53-.51,5.1,5.1,0,0,1-1.92-1.57,5.87,5.87,0,0,1-1.06-2,7.13,7.13,0,0,1-.26-1.51V152.35C88.27,151.64,88.47,151.29,88.88,151.29Z"/><path class="cls-1" d="M97.93,152.35c0-.71.18-1.06.6-1.06h2.7c.41,0,.62.26.62.8v17.83c0,.54-.21.8-.62.79h-2.7q-.63,0-.6-1.05Z"/><path class="cls-1" d="M114.78,169.53a6.76,6.76,0,0,1-3.79,1.22v0l-.2.06a9.8,9.8,0,0,1-1.93-.26,6.29,6.29,0,0,1-4.39-3.89,7.9,7.9,0,0,1-.49-2.77.73.73,0,0,1,.57-.6h2.74c.39,0,.6.24.65.72v-.14c0,1.89.71,3,2.14,3.36a3.25,3.25,0,0,0,.68.05,3.13,3.13,0,0,0,2.35-.86,1.6,1.6,0,0,0,.34-2c-.34-.72-2-1.43-4.82-2.11s-4.35-2.14-4.42-4.37a6.34,6.34,0,0,1,6.07-6.62,11.67,11.67,0,0,1,2.45.21,6.93,6.93,0,0,1,1.86.8,6.69,6.69,0,0,1,1.65,1.51,7.36,7.36,0,0,1,.88,1.6,6.53,6.53,0,0,1,.49,2.54v.39a.69.69,0,0,1-.57.68H114.3c-.39,0-.6-.23-.65-.71v-.11c0-1.74-.71-2.79-2.14-3.13a2.54,2.54,0,0,0-.68-.06c-1.38,0-2.21.45-2.49,1.34s-.26,1.52,0,1.88,1.87.91,4.68,1.64,4.25,2.17,4.31,4.33A6.1,6.1,0,0,1,114.78,169.53Z"/><path class="cls-1" d="M123.46,163v6.9c0,.54-.21.8-.63.79h-2.7q-.61,0-.6-1.05V152.35c0-.71.19-1.06.6-1.06h2.7c.42,0,.63.26.63.8v7.16h4.81v-6.9c0-.71.18-1.06.6-1.06h2.7c.41,0,.62.26.62.8v17.83c0,.54-.21.8-.62.79h-2.7q-.63,0-.6-1.05V163Z"/><path class="cls-2" d="M43.43,139.85A64.3,64.3,0,0,1,30.15,114,61,61,0,0,0,48,135.05a60.34,60.34,0,0,0,11.89,6.78c.59-.82,1.17-1.65,1.78-2.46A256.66,256.66,0,0,1,98.28,99.44a249.83,249.83,0,0,0-24.94,46H119a13.22,13.22,0,0,0,13.22-13.22V26.44A13.22,13.22,0,0,0,119,13.22l-.75.19q-3.6,6.86-7.34,13.6Q102.41,42.3,93.22,57.13C87.07,67,80.66,76.72,73.76,86.08S59.5,104.52,50.93,112.24c6.92-9.19,12.24-19.32,17.16-29.57,1-2,1.89-4.07,2.81-6.11A343.06,343.06,0,0,0,39.52,37.77Q30,27.57,19.82,18.14c-1.63-1.51-3.28-3-4.93-4.47l-1.67-.45A13.22,13.22,0,0,0,0,26.44V132.19a13.22,13.22,0,0,0,13.22,13.22H48.76A62.13,62.13,0,0,1,43.43,139.85Z"/><polygon class="cls-3" points="112.09 13.34 76.77 26.44 23.55 13.34 62.57 0 112.09 13.34"/><path class="cls-3" d="M110.16,18.12,77.1,38.35,25.51,17.06S64.62,43.53,77.14,64.65C88.25,52.13,110.16,18.12,110.16,18.12Z"/><path class="cls-4" d="M2.16,179.17H0v-6.24H2.1c1.31,0,1.94.7,1.94,1.57A1.43,1.43,0,0,1,2.92,176a1.57,1.57,0,0,1,1.26,1.55C4.18,178.44,3.47,179.17,2.16,179.17Zm-.11-5.71H.62v2.23H2.08c.85,0,1.32-.43,1.32-1.12S3,173.46,2.05,173.46Zm0,2.75H.62v2.44h1.5c.9,0,1.43-.46,1.43-1.21S3,176.21,2.09,176.21Z"/><path class="cls-4" d="M9,173.44H6.4v2.33H8.77v.52H6.4v2.37H9v.51H5.78v-6.25H9Z"/><path class="cls-4" d="M10.27,172.93h4.1v.52H12.63v5.72H12v-5.72H10.27Z"/><path class="cls-4" d="M15.36,172.93h4.1v.52H17.72v5.72H17.1v-5.72H15.36Z"/><path class="cls-4" d="M24.15,173.44H21.52v2.33h2.36v.52H21.52v2.37h2.63v.51H20.89v-6.25h3.26Z"/><path class="cls-4" d="M27.71,172.93c1.44,0,2.12.79,2.12,1.82a1.72,1.72,0,0,1-1.54,1.77l1.61,2.65h-.75l-1.54-2.6H26.46v2.6h-.63v-6.24Zm0,.53H26.46v2.6h1.25c1,0,1.48-.56,1.48-1.31S28.76,173.46,27.71,173.46Z"/><path class="cls-4" d="M37.67,173.44H35v2.33H37.4v.52H35v2.37h2.63v.51H34.41v-6.25h3.26Z"/><path class="cls-4" d="M44.05,172.93v6.24h-.62L40,173.92v5.25h-.62v-6.24H40l3.46,5.24v-5.24Z"/><path class="cls-4" d="M51.56,174.75h-.73a2.21,2.21,0,0,0-2.11-1.32,2.63,2.63,0,0,0,0,5.24,2.3,2.3,0,0,0,2.38-2.3H48.47v-.51h3.29v.46a3,3,0,0,1-3,2.92,3.19,3.19,0,0,1,0-6.38A2.9,2.9,0,0,1,51.56,174.75Z"/><path class="cls-4" d="M54,172.93v5.73h2.25v.51H53.35v-6.24Z"/><path class="cls-4" d="M57.56,172.93h.62v6.24h-.62Z"/><path class="cls-4" d="M61.94,179.24a1.88,1.88,0,0,1-2.11-1.67h.66a1.31,1.31,0,0,0,1.45,1.14c.87,0,1.37-.51,1.37-1.15,0-1.84-3.42-.68-3.42-3a1.77,1.77,0,0,1,2-1.67,1.81,1.81,0,0,1,2,1.52h-.67a1.29,1.29,0,0,0-1.36-1,1.17,1.17,0,0,0-1.34,1.11c0,1.81,3.43.7,3.43,3A1.81,1.81,0,0,1,61.94,179.24Z"/><path class="cls-4" d="M69.61,176.25H66.23v2.92H65.6v-6.24h.63v2.81h3.38v-2.81h.62v6.24h-.62Z"/><path class="cls-4" d="M74.56,175.6H78v.53H74.56Z"/><path class="cls-4" d="M85.14,179.17H83v-6.24h2.09c1.32,0,1.94.7,1.94,1.57A1.43,1.43,0,0,1,85.89,176a1.57,1.57,0,0,1,1.26,1.55C87.15,178.44,86.45,179.17,85.14,179.17ZM85,173.46H83.6v2.23h1.46c.84,0,1.32-.43,1.32-1.12S85.93,173.46,85,173.46Zm0,2.75H83.6v2.44h1.49c.9,0,1.44-.46,1.44-1.21S86,176.21,85.06,176.21Z"/><path class="cls-4" d="M92,173.44H89.38v2.33h2.36v.52H89.38v2.37H92v.51H88.75v-6.25H92Z"/><path class="cls-4" d="M93.24,172.93h4.1v.52H95.61v5.72H95v-5.72H93.24Z"/><path class="cls-4" d="M98.33,172.93h4.1v.52H100.7v5.72h-.63v-5.72H98.33Z"/><path class="cls-4" d="M107.13,173.44h-2.64v2.33h2.37v.52h-2.37v2.37h2.64v.51h-3.26v-6.25h3.26Z"/><path class="cls-4" d="M110.68,172.93c1.45,0,2.13.79,2.13,1.82a1.72,1.72,0,0,1-1.54,1.77l1.61,2.65h-.75l-1.55-2.6h-1.15v2.6h-.62v-6.24Zm0,.53h-1.25v2.6h1.26c1,0,1.47-.56,1.47-1.31S111.74,173.46,110.68,173.46Z"/><path class="cls-4" d="M118,172.93v5.73h2.24v.51h-2.86v-6.24Z"/><path class="cls-4" d="M121.59,172.93h.63v6.24h-.63Z"/><path class="cls-4" d="M124.08,172.93h3.38v.52h-2.75v2.33H127v.52h-2.32v2.87h-.63Z"/><path class="cls-4" d="M132.19,173.44h-2.63v2.33h2.36v.52h-2.36v2.37h2.63v.51h-3.26v-6.25h3.26Z"/></g></g></svg>